<svg viewBox="0 0 200 200" xmlns="http://www.w3.org/2000/svg" preserveAspectRatio="xMinYMin meet">
    <defs>
        <linearGradient id="Gradient">
        <stop 
            offset="0%"
            stop-color="#f794a4"
        />
        <stop 
            offset="100%"
            stop-color="#ec8c69"
        />
        </linearGradient>
    </defs>
    <path fill="url(#Gradient)" d="M42.8,-63.4C54.2,-59.3,61.2,-45.2,67.6,-30.9C74.1,-16.6,80,-2.2,78.3,11.4C76.6,25,67.3,37.7,55.7,44.5C44,51.4,29.8,52.4,18.5,49.7C7.1,47,-1.5,40.6,-9.8,36.7C-18.2,32.8,-26.3,31.3,-35.6,27.1C-44.8,23,-55.3,16.2,-57.7,7.6C-60.1,-1.1,-54.4,-11.7,-45.7,-16.8C-37.1,-22,-25.5,-21.8,-17.4,-27.4C-9.3,-32.9,-4.6,-44.2,5.5,-52.9C15.7,-61.5,31.4,-67.5,42.8,-63.4Z" transform="translate(100 100)" />
</svg>
